<svg xmlns="http://www.w3.org/2000/svg" version="1.0" preserveAspectRatio="xMidYMid meet" viewBox="35.8 29.67 116.84 73.42">

<g transform="translate(0.000000,126.000000) scale(0.100000,-0.100000)" fill="#fff" stroke="none">
<path d="M1022 958 c-17 -17 -15 -45 4 -52 19 -7 44 10 44 30 0 20 -34 36 -48 22z"/>
<path d="M1180 936 c-7 -9 -16 -14 -20 -11 -5 3 -20 1 -34 -4 -22 -9 -26 -18 -32 -70 -4 -35 -13 -66 -22 -73 -13 -11 -14 -5 -8 55 8 67 8 67 -15 59 -29 -11 -37 -25 -44 -82 -11 -90 -41 -94 -39 -5 1 47 -1 52 -17 48 -11 -3 -19 -11 -19 -18 0 -8 -8 -11 -19 -8 -42 11 -91 -47 -91 -109 0 -26 -16 -55 -25 -47 -3 4 -2 25 4 47 6 30 5 46 -4 59 -13 17 -15 17 -39 -6 l-26 -24 0 57 0 58 -27 -7 c-16 -4 -29 -7 -29 -8 -1 -1 -5 -68 -9 -149 l-7 -147 30 11 c28 11 31 16 37 75 4 34 10 65 14 67 4 3 5 -10 3 -29 -9 -73 45 -103 75 -41 14 30 18 33 31 20 20 -20 54 -14 67 13 8 16 15 19 27 12 16 -9 48 -3 48 10 0 3 4 12 9 20 8 12 12 13 26 1 13 -11 20 -10 46 9 16 12 35 21 42 20 32 -4 37 2 38 54 1 28 5 63 9 77 6 20 8 14 9 -27 2 -111 76 -100 102 14 9 40 -7 44 -23 6 -12 -27 -12 -26 -18 27 -5 58 -25 76 -50 46z m-272 -178 c-4 -55 -28 -64 -28 -10 0 21 3 42 7 45 16 17 24 4 21 -35z"/>
<path d="M540 822 c-25 -12 -43 -33 -63 -72 -15 -30 -32 -56 -37 -58 -16 -6 -24 29 -10 38 16 10 4 30 -19 30 -25 0 -54 -34 -53 -65 0 -36 20 -55 58 -55 31 0 34 -2 34 -31 0 -22 10 -41 34 -65 38 -38 53 -41 102 -18 62 30 82 109 33 134 -23 13 -54 6 -44 -10 11 -18 -6 -50 -25 -50 -14 0 -23 12 -31 40 -11 35 -10 42 6 60 11 13 25 18 39 14 46 -11 89 73 55 107 -23 23 -35 24 -79 1z m39 -44 c-1 -17 -2 -19 -6 -6 -4 15 -8 16 -26 6 -20 -10 -21 -10 -8 5 19 24 41 21 40 -5z"/>
<path d="M1368 790 c-24 -12 -38 -15 -40 -8 -6 18 -48 -1 -48 -22 0 -21 -28 -40 -59 -40 -12 0 -21 -4 -21 -9 0 -18 30 -33 54 -27 23 6 24 3 31 -53 4 -33 4 -69 0 -81 -12 -37 -30 -16 -33 38 -2 38 -7 52 -18 52 -8 0 -17 -7 -20 -15 -4 -8 -17 -15 -30 -15 -43 0 -74 -53 -74 -126 0 -27 -36 -68 -51 -59 -6 4 -1 20 11 41 28 45 23 78 -11 82 -40 5 -69 -38 -69 -99 0 -61 27 -94 68 -84 29 6 62 39 62 61 0 16 16 19 25 4 11 -18 44 -11 60 14 11 17 22 22 39 19 18 -4 29 2 41 21 13 20 21 24 31 15 18 -15 48 3 63 38 6 15 14 53 19 83 6 47 11 55 30 58 23 3 23 3 8 -32 -14 -34 -14 -36 4 -36 15 0 14 -4 -10 -30 -66 -71 -73 -160 -12 -160 63 0 105 66 101 158 -2 31 1 67 5 79 4 12 3 24 -3 27 -5 3 -14 -8 -20 -26 -13 -37 -25 -30 -25 15 -1 29 -4 32 -31 32 -16 0 -35 6 -40 13 -14 18 -45 4 -45 -19 0 -11 7 -22 15 -25 15 -6 13 -29 -7 -83 -13 -37 -25 -14 -32 65 -6 69 -5 71 20 83 15 6 35 9 45 6 24 -8 46 30 28 51 -15 18 -17 18 -61 -6z m-173 -255 c0 -22 -5 -40 -12 -42 -9 -3 -13 9 -13 42 0 33 4 45 13 43 7 -3 12 -21 12 -43z m-144 -58 c-13 -13 -15 11 -4 40 7 16 8 15 11 -6 2 -13 -1 -28 -7 -34z"/>
<path d="M863 606 c-12 -15 -35 -26 -63 -31 -43 -7 -90 -42 -90 -67 0 -8 7 -24 16 -36 20 -29 61 -26 82 6 13 20 13 22 -2 16 -24 -9 -21 33 4 46 19 10 20 8 19 -32 -1 -82 -15 -141 -39 -160 -18 -14 -26 -16 -37 -7 -18 16 -11 34 13 34 13 0 20 8 22 27 3 22 -2 29 -24 34 -39 10 -75 -6 -102 -46 -70 -103 66 -216 157 -131 27 25 37 28 71 24 34 -5 43 -1 70 25 48 48 35 121 -24 136 -23 6 -24 7 -10 35 18 37 5 77 -31 91 -32 12 -33 24 -1 16 29 -7 43 9 26 29 -18 21 -36 18 -57 -9z m17 -91 c0 -30 -10 -55 -21 -55 -10 0 -12 50 -3 74 8 22 24 10 24 -19z m8 -132 c2 -18 -3 -35 -12 -43 -14 -11 -16 -7 -16 35 0 53 23 60 28 8z"/>
</g>
</svg>